# xmcd
#
# Track frame offsets:
#	150
#	14098
#	31798
#	44748
#	58775
#	72536
#	87085
#	103056
#	116553
#	136161
#	148256
#	167522
#	181135
#
# Disc length: 2581 seconds
#
# Revision: 0
# Processed by: cddbd v1.5.2PL0 Copyright (c) Steve Scherf et al.
# Submitted via: MusicManager 7.3.0.0 
#
DISCID=ba0a130d
DTITLE=DARREN BUSBY - WE ROB TRAINS
DYEAR=2010
DGENRE=country
TTITLE0=FIRECRACKER
TTITLE1=AMAZED
TTITLE2=LAID BACK 'N LOW KEY
TTITLE3=RESTLESS
TTITLE4=CABO SAN LUCAS
TTITLE5=ALWAYS ON MY MIND
TTITLE6=ANGEL OF NO MERCY
TTITLE7=GALWAY GIRL
TTITLE8=EL PASO CITY
TTITLE9=UNDER THE BOARDWALK
TTITLE10=SHE BELIEVES IN ME
TTITLE11=HIGHER AND HIGHER
TTITLE12=WE ROB TRAINS
EXTD=
EXTT0=
EXTT1=
EXTT2=
EXTT3=
EXTT4=
EXTT5=
EXTT6=
EXTT7=
EXTT8=
EXTT9=
EXTT10=
EXTT11=
EXTT12=
PLAYORDER=
